<svg aria-hidden="true" style="position: absolute; width: 0; height: 0; overflow: hidden;" version="1.1" xmlns="http://www.w3.org/2000/svg" xmlns:xlink="http://www.w3.org/1999/xlink">
<defs>
<symbol id="arrow_forward-1" viewBox="0 0 32 32">
<path fill="#fff" style="fill: var(--color1, #fff)" d="M16 26.667l-1.9-1.867 7.467-7.467h-16.233v-2.667h16.233l-7.467-7.467 1.9-1.867 10.667 10.667-10.667 10.667z"></path>
</symbol>
<symbol id="arrow_forward" viewBox="0 0 32 32">
<path fill="#8842f0" style="fill: var(--color2, #8842f0)" d="M16 26.667l-1.9-1.867 7.467-7.467h-16.233v-2.667h16.233l-7.467-7.467 1.9-1.867 10.667 10.667-10.667 10.667z"></path>
</symbol>
<symbol id="search" viewBox="0 0 32 32">
<path fill="#fff" style="fill: var(--color1, #fff)" d="M26.133 28l-8.4-8.4c-0.667 0.533-1.433 0.956-2.3 1.267s-1.789 0.467-2.767 0.467c-2.422 0-4.472-0.839-6.149-2.516s-2.517-3.728-2.517-6.151c0-2.422 0.839-4.472 2.517-6.151s3.727-2.516 6.149-2.516c2.422 0 4.472 0.839 6.151 2.516s2.516 3.728 2.516 6.151c0 0.978-0.156 1.9-0.467 2.767s-0.733 1.633-1.267 2.3l8.4 8.4-1.867 1.867zM12.667 18.667c1.667 0 3.084-0.583 4.251-1.749s1.749-2.584 1.749-4.251-0.583-3.084-1.749-4.251c-1.167-1.166-2.584-1.749-4.251-1.749s-3.084 0.583-4.251 1.749c-1.166 1.167-1.749 2.584-1.749 4.251s0.583 3.084 1.749 4.251c1.167 1.166 2.584 1.749 4.251 1.749z"></path>
</symbol>
<symbol id="ring_volume" viewBox="0 0 32 32">
<path d="M14.601 9.292v-6.637h2.655v6.637h-2.655zM23.362 13.075l-1.858-1.925 4.712-4.712 1.858 1.925-4.712 4.712zM8.495 13.075l-4.712-4.712 1.858-1.925 4.712 4.712-1.858 1.925zM15.929 15.929c2.611 0 5.182 0.526 7.715 1.577s4.785 2.626 6.754 4.728c0.265 0.265 0.398 0.575 0.398 0.929s-0.133 0.664-0.398 0.929l-3.053 2.987c-0.243 0.243-0.525 0.376-0.846 0.398s-0.615-0.066-0.88-0.265l-3.849-2.92c-0.177-0.133-0.31-0.288-0.398-0.465s-0.133-0.376-0.133-0.597v-3.783c-0.841-0.265-1.703-0.476-2.588-0.631s-1.792-0.232-2.721-0.232c-0.929 0-1.836 0.077-2.721 0.232s-1.748 0.365-2.588 0.631v3.783c0 0.221-0.044 0.42-0.133 0.597s-0.221 0.332-0.398 0.465l-3.849 2.92c-0.265 0.199-0.558 0.288-0.879 0.265s-0.604-0.155-0.847-0.398l-3.053-2.987c-0.265-0.265-0.398-0.575-0.398-0.929s0.133-0.664 0.398-0.929c1.947-2.102 4.192-3.678 6.736-4.728s5.121-1.577 7.732-1.577zM7.964 20.375c-0.642 0.332-1.261 0.713-1.858 1.144s-1.217 0.913-1.858 1.444l1.327 1.327 2.389-1.858v-2.057zM23.893 20.442v1.991l2.389 1.858 1.327-1.261c-0.642-0.575-1.261-1.073-1.858-1.493s-1.217-0.785-1.858-1.095z"></path>
</symbol>
<symbol id="person_search" viewBox="0 0 32 32">
<path d="M14.568 15.892c-1.457 0-2.704-0.519-3.741-1.556s-1.556-2.284-1.556-3.741c0-1.457 0.519-2.704 1.556-3.741s2.284-1.556 3.741-1.556c1.457 0 2.704 0.519 3.741 1.556s1.556 2.284 1.556 3.741c0 1.457-0.519 2.704-1.556 3.741s-2.284 1.556-3.741 1.556zM14.568 13.243c0.728 0 1.352-0.26 1.871-0.779s0.777-1.142 0.777-1.87-0.259-1.352-0.777-1.87c-0.519-0.519-1.143-0.779-1.871-0.779s-1.352 0.26-1.87 0.779c-0.519 0.518-0.779 1.142-0.779 1.87s0.26 1.352 0.779 1.87c0.518 0.519 1.142 0.779 1.87 0.779zM29.268 31.122l-4.238-4.238c-0.463 0.265-0.96 0.486-1.49 0.662s-1.093 0.265-1.689 0.265c-1.655 0-3.063-0.579-4.222-1.738s-1.738-2.567-1.738-4.222 0.579-3.063 1.738-4.222c1.159-1.158 2.567-1.738 4.222-1.738s3.063 0.579 4.222 1.738c1.158 1.159 1.738 2.567 1.738 4.222 0 0.596-0.088 1.159-0.265 1.689s-0.397 1.026-0.662 1.49l4.238 4.238-1.854 1.854zM21.851 25.162c0.927 0 1.711-0.32 2.351-0.96s0.96-1.424 0.96-2.351c0-0.927-0.32-1.711-0.96-2.351s-1.424-0.96-2.351-0.96c-0.927 0-1.711 0.32-2.351 0.96s-0.96 1.424-0.96 2.351c0 0.927 0.32 1.711 0.96 2.351s1.424 0.96 2.351 0.96zM3.973 26.487v-3.675c0-0.75 0.188-1.446 0.563-2.086s0.894-1.126 1.556-1.457c1.126-0.574 2.395-1.059 3.807-1.457s2.98-0.596 4.701-0.596c-0.265 0.397-0.491 0.822-0.678 1.274s-0.337 0.922-0.448 1.408c-1.324 0.11-2.505 0.336-3.543 0.678s-1.909 0.701-2.616 1.077c-0.221 0.11-0.392 0.27-0.513 0.479s-0.183 0.437-0.183 0.679v1.026h6.853c0.11 0.486 0.26 0.949 0.448 1.391s0.413 0.861 0.678 1.258h-10.628z"></path>
</symbol>
<symbol id="medical_information" viewBox="0 0 32 32">
<path d="M9.269 23.835h2.648v-2.648h2.648v-2.648h-2.648v-2.648h-2.648v2.648h-2.648v2.648h2.648v2.648zM17.214 19.2h7.945v-1.986h-7.945v1.986zM17.214 23.173h5.297v-1.986h-5.297v1.986zM5.297 29.132c-0.728 0-1.351-0.259-1.87-0.777s-0.779-1.143-0.779-1.871v-14.566c0-0.728 0.26-1.352 0.779-1.871s1.141-0.777 1.87-0.777h6.621v-3.973c0-0.728 0.26-1.352 0.779-1.871s1.141-0.777 1.87-0.777h2.648c0.728 0 1.352 0.259 1.871 0.777s0.777 1.143 0.777 1.871v3.973h6.621c0.728 0 1.352 0.259 1.871 0.777s0.777 1.143 0.777 1.871v14.566c0 0.728-0.259 1.352-0.777 1.871s-1.143 0.777-1.871 0.777h-21.187zM5.297 26.483h21.187v-14.566h-6.621c0 0.728-0.259 1.351-0.777 1.87s-1.143 0.779-1.871 0.779h-2.648c-0.728 0-1.352-0.26-1.87-0.779s-0.779-1.141-0.779-1.87h-6.621v14.566zM14.566 11.917h2.648v-6.621h-2.648v6.621z"></path>
</symbol>
<symbol id="menu2" viewBox="0 0 44 32">
<path d="M0 6h28v6h-28v-6zM0 14h28v6h-28v-6zM0 22h28v6h-28v-6z"></path>
<path d="M31 18l6 6 6-6z"></path>
<path d="M43 16l-6-6-6 6z"></path>
</symbol>
<symbol id="cross" viewBox="0 0 32 32">
<path d="M31.708 25.708c-0-0-0-0-0-0l-9.708-9.708 9.708-9.708c0-0 0-0 0-0 0.105-0.105 0.18-0.227 0.229-0.357 0.133-0.356 0.057-0.771-0.229-1.057l-4.586-4.586c-0.286-0.286-0.702-0.361-1.057-0.229-0.13 0.048-0.252 0.124-0.357 0.228 0 0-0 0-0 0l-9.708 9.708-9.708-9.708c-0-0-0-0-0-0-0.105-0.104-0.227-0.18-0.357-0.228-0.356-0.133-0.771-0.057-1.057 0.229l-4.586 4.586c-0.286 0.286-0.361 0.702-0.229 1.057 0.049 0.13 0.124 0.252 0.229 0.357 0 0 0 0 0 0l9.708 9.708-9.708 9.708c-0 0-0 0-0 0-0.104 0.105-0.18 0.227-0.229 0.357-0.133 0.355-0.057 0.771 0.229 1.057l4.586 4.586c0.286 0.286 0.702 0.361 1.057 0.229 0.13-0.049 0.252-0.124 0.357-0.229 0-0 0-0 0-0l9.708-9.708 9.708 9.708c0 0 0 0 0 0 0.105 0.105 0.227 0.18 0.357 0.229 0.356 0.133 0.771 0.057 1.057-0.229l4.586-4.586c0.286-0.286 0.362-0.702 0.229-1.057-0.049-0.13-0.124-0.252-0.229-0.357z"></path>
</symbol>
</defs>
</svg>
