<svg aria-hidden="true" style="position: absolute; width: 0; height: 0; overflow: hidden;" version="1.1" xmlns="http://www.w3.org/2000/svg" xmlns:xlink="http://www.w3.org/1999/xlink">
<defs>
<symbol id="Frame-8" viewBox="0 0 32 32">
<path d="M16 0c-3.731-0.002-7.345 1.299-10.218 3.679s-4.824 5.689-5.515 9.355c-0.692 3.666-0.080 7.458 1.728 10.721s4.7 5.792 8.175 7.149c-0.14-1.266-0.268-3.212 0.054-4.594 0.292-1.25 1.876-7.954 1.876-7.954s-0.478-0.958-0.478-2.374c0-2.226 1.29-3.886 2.896-3.886 1.364 0 2.024 1.024 2.024 2.254 0 1.372-0.874 3.424-1.326 5.326-0.376 1.592 0.8 2.892 2.37 2.892 2.844 0 5.030-3 5.030-7.328 0-3.83-2.754-6.508-6.684-6.508-4.552 0-7.224 3.414-7.224 6.942 0 1.376 0.53 2.85 1.19 3.652 0.057 0.060 0.097 0.135 0.117 0.215s0.018 0.165-0.005 0.245c-0.122 0.504-0.392 1.592-0.444 1.814-0.070 0.292-0.232 0.354-0.536 0.214-2-0.93-3.248-3.852-3.248-6.2 0-5.046 3.668-9.68 10.572-9.68 5.55 0 9.864 3.954 9.864 9.24 0 5.514-3.478 9.952-8.302 9.952-1.622 0-3.146-0.842-3.668-1.838l-0.996 3.804c-0.362 1.39-1.338 3.132-1.99 4.194 2.2 0.68 4.521 0.878 6.804 0.579s4.475-1.087 6.425-2.311c1.951-1.224 3.614-2.854 4.877-4.78s2.095-4.101 2.44-6.378c0.345-2.277 0.194-4.601-0.442-6.814s-1.742-4.263-3.243-6.009c-1.501-1.746-3.361-3.148-5.453-4.11s-4.367-1.46-6.67-1.462z"></path>
</symbol>
<symbol id="Frame-7" viewBox="0 0 32 32">
<path d="M16.102 3.998h0.178c1.644 0.006 9.974 0.066 12.22 0.67 0.679 0.184 1.298 0.544 1.794 1.042s0.854 1.118 1.036 1.798c0.202 0.76 0.344 1.766 0.44 2.804l0.020 0.208 0.044 0.52 0.016 0.208c0.13 1.828 0.146 3.54 0.148 3.914v0.15c-0.002 0.388-0.020 2.216-0.164 4.12l-0.016 0.21-0.018 0.208c-0.1 1.144-0.248 2.28-0.47 3.116-0.181 0.68-0.538 1.3-1.035 1.799s-1.116 0.858-1.795 1.041c-2.32 0.624-11.138 0.668-12.36 0.67h-0.284c-0.618 0-3.174-0.012-5.854-0.104l-0.34-0.012-0.174-0.008-0.684-0.028c-2.22-0.098-4.334-0.256-5.308-0.52-0.679-0.184-1.298-0.542-1.795-1.041s-0.854-1.118-1.035-1.797c-0.222-0.834-0.37-1.972-0.47-3.116l-0.016-0.21-0.016-0.208c-0.099-1.355-0.153-2.713-0.164-4.072v-0.246c0.004-0.43 0.020-1.916 0.128-3.556l0.014-0.206 0.006-0.104 0.016-0.208 0.044-0.52 0.020-0.208c0.096-1.038 0.238-2.046 0.44-2.804 0.181-0.68 0.538-1.3 1.035-1.799s1.116-0.858 1.795-1.041c0.974-0.26 3.088-0.42 5.308-0.52l0.34-0.014 0.516-0.018 0.342-0.014c1.903-0.061 3.808-0.095 5.712-0.102h0.386v-0.002zM12.8 10.418v9.636l8.314-4.816-8.314-4.82z"></path>
</symbol>
<symbol id="Frame-6" viewBox="0 0 32 32">
<path d="M16 0c-4.342 0-4.888 0.020-6.594 0.096-1.706 0.080-2.868 0.348-3.886 0.744-1.068 0.402-2.035 1.032-2.834 1.846-0.814 0.799-1.444 1.766-1.846 2.834-0.396 1.016-0.666 2.18-0.744 3.88-0.076 1.71-0.096 2.254-0.096 6.602 0 4.344 0.020 4.888 0.096 6.594 0.080 1.704 0.348 2.866 0.744 3.884 0.41 1.052 0.956 1.944 1.846 2.834 0.888 0.89 1.78 1.438 2.832 1.846 1.020 0.396 2.18 0.666 3.884 0.744 1.708 0.076 2.252 0.096 6.598 0.096s4.888-0.020 6.596-0.096c1.702-0.080 2.868-0.348 3.886-0.744 1.067-0.402 2.034-1.032 2.832-1.846 0.89-0.89 1.436-1.782 1.846-2.834 0.394-1.018 0.664-2.18 0.744-3.884 0.076-1.706 0.096-2.25 0.096-6.596s-0.020-4.89-0.096-6.598c-0.080-1.702-0.35-2.866-0.744-3.882-0.402-1.068-1.032-2.035-1.846-2.834-0.799-0.815-1.766-1.445-2.834-1.846-1.020-0.396-2.184-0.666-3.886-0.744-1.708-0.076-2.25-0.096-6.598-0.096h0.004zM14.566 2.884h1.436c4.272 0 4.778 0.014 6.464 0.092 1.56 0.070 2.408 0.332 2.972 0.55 0.746 0.29 1.28 0.638 1.84 1.198s0.906 1.092 1.196 1.84c0.22 0.562 0.48 1.41 0.55 2.97 0.078 1.686 0.094 2.192 0.094 6.462s-0.016 4.778-0.094 6.464c-0.070 1.56-0.332 2.406-0.55 2.97-0.257 0.695-0.666 1.323-1.198 1.838-0.56 0.56-1.092 0.906-1.84 1.196-0.56 0.22-1.408 0.48-2.97 0.552-1.686 0.076-2.192 0.094-6.464 0.094s-4.78-0.018-6.466-0.094c-1.56-0.072-2.406-0.332-2.97-0.552-0.695-0.256-1.324-0.665-1.84-1.196-0.532-0.516-0.943-1.145-1.2-1.84-0.218-0.562-0.48-1.41-0.55-2.97-0.076-1.686-0.092-2.192-0.092-6.466 0-4.272 0.016-4.776 0.092-6.462 0.072-1.56 0.332-2.408 0.552-2.972 0.29-0.746 0.638-1.28 1.198-1.84s1.092-0.906 1.84-1.196c0.564-0.22 1.41-0.48 2.97-0.552 1.476-0.068 2.048-0.088 5.030-0.090v0.004zM24.542 5.54c-0.252 0-0.502 0.050-0.735 0.146s-0.445 0.238-0.623 0.416c-0.178 0.178-0.32 0.39-0.416 0.623s-0.146 0.483-0.146 0.735c0 0.252 0.050 0.502 0.146 0.735s0.238 0.445 0.416 0.623c0.178 0.178 0.39 0.32 0.623 0.416s0.483 0.146 0.735 0.146c0.509 0 0.998-0.202 1.358-0.562s0.562-0.848 0.562-1.358-0.202-0.998-0.562-1.358c-0.36-0.36-0.848-0.562-1.358-0.562zM16.002 7.784c-1.090-0.017-2.172 0.183-3.184 0.588s-1.933 1.008-2.71 1.773-1.394 1.676-1.815 2.682c-0.421 1.005-0.638 2.085-0.638 3.174s0.217 2.169 0.638 3.175 1.038 1.917 1.815 2.682c0.777 0.765 1.698 1.367 2.71 1.773s2.094 0.605 3.184 0.588c2.157-0.034 4.214-0.914 5.728-2.451s2.362-3.608 2.362-5.766c0-2.157-0.848-4.228-2.362-5.765s-3.571-2.418-5.728-2.451zM16.002 10.666c1.415 0 2.771 0.562 3.772 1.562s1.562 2.357 1.562 3.772-0.562 2.771-1.562 3.772c-1 1-2.357 1.562-3.772 1.562s-2.771-0.562-3.772-1.562c-1-1-1.562-2.357-1.562-3.772s0.562-2.771 1.562-3.772c1-1 2.357-1.562 3.772-1.562z"></path>
</symbol>
<symbol id="Frame-5" viewBox="0 0 32 32">
<path fill="#eab308" style="fill: var(--color1, #eab308)" d="M0 2.292c0-1.266 1.052-2.292 2.35-2.292h27.3c1.298 0 2.35 1.026 2.35 2.292v27.416c0 1.266-1.052 2.292-2.35 2.292h-27.3c-1.298 0-2.35-1.026-2.35-2.292v-27.416zM9.886 26.788v-14.45h-4.802v14.45h4.802zM7.486 10.364c1.674 0 2.716-1.108 2.716-2.496-0.030-1.418-1.040-2.496-2.684-2.496s-2.718 1.080-2.718 2.496c0 1.388 1.042 2.496 2.654 2.496h0.032zM17.302 26.788v-8.070c0-0.432 0.032-0.864 0.16-1.172 0.346-0.862 1.136-1.756 2.464-1.756 1.738 0 2.432 1.324 2.432 3.268v7.73h4.802v-8.288c0-4.44-2.368-6.504-5.528-6.504-2.548 0-3.69 1.4-4.33 2.386v0.050h-0.032c0.011-0.017 0.021-0.033 0.032-0.050v-2.044h-4.8c0.060 1.356 0 14.45 0 14.45h4.8z"></path>
</symbol>
<symbol id="Frame-4" viewBox="0 0 32 32">
<path d="M10.052 30c12.076 0 18.682-10.006 18.682-18.668 0-0.28 0-0.564-0.012-0.844 1.286-0.931 2.396-2.084 3.278-3.404-1.201 0.53-2.475 0.879-3.778 1.036 1.373-0.821 2.401-2.112 2.894-3.634-1.29 0.764-2.702 1.301-4.174 1.586-0.99-1.054-2.299-1.752-3.726-1.986s-2.891 0.008-4.165 0.69c-1.275 0.682-2.289 1.765-2.886 3.082s-0.743 2.794-0.415 4.202c-2.611-0.131-5.164-0.809-7.496-1.991s-4.389-2.84-6.038-4.867c-0.837 1.446-1.093 3.157-0.715 4.785s1.362 3.051 2.751 3.979c-1.041-0.035-2.059-0.315-2.972-0.816v0.090c0.002 1.515 0.527 2.983 1.486 4.156s2.294 1.978 3.778 2.28c-0.563 0.155-1.146 0.233-1.73 0.23-0.412 0.001-0.823-0.037-1.228-0.114 0.42 1.304 1.237 2.444 2.337 3.261s2.428 1.269 3.798 1.293c-2.327 1.828-5.201 2.819-8.16 2.814-0.521 0.002-1.042-0.028-1.56-0.090 3.003 1.914 6.491 2.931 10.052 2.93z"></path>
</symbol>
<symbol id="Frame-3" viewBox="0 0 32 32">
<path d="M31.999 16.097c0-8.892-7.164-16.1-16-16.1-8.84 0.002-16.004 7.208-16.004 16.102 0 8.034 5.852 14.694 13.5 15.902v-11.25h-4.060v-4.652h4.064v-3.55c0-4.034 2.39-6.262 6.044-6.262 1.752 0 3.582 0.314 3.582 0.314v3.96h-2.018c-1.986 0-2.606 1.242-2.606 2.516v3.020h4.436l-0.708 4.652h-3.73v11.25c7.648-1.208 13.5-7.868 13.5-15.902z"></path>
</symbol>
<symbol id="Frame-2" viewBox="0 0 32 32">
<path fill="#eab308" style="fill: var(--color1, #eab308)" d="M0 21c0-0.796 0.316-1.559 0.879-2.121s1.326-0.879 2.121-0.879h2c0.796 0 1.559 0.316 2.121 0.879s0.879 1.326 0.879 2.121v2c0 0.796-0.316 1.559-0.879 2.121s-1.326 0.879-2.121 0.879h-2c-0.796 0-1.559-0.316-2.121-0.879s-0.879-1.326-0.879-2.121v-2zM3 20c-0.265 0-0.52 0.105-0.707 0.293s-0.293 0.442-0.293 0.707v2c0 0.265 0.105 0.52 0.293 0.707s0.442 0.293 0.707 0.293h2c0.265 0 0.52-0.105 0.707-0.293s0.293-0.442 0.293-0.707v-2c0-0.265-0.105-0.52-0.293-0.707s-0.442-0.293-0.707-0.293h-2zM24 21c0-0.796 0.316-1.559 0.879-2.121s1.326-0.879 2.121-0.879h2c0.796 0 1.559 0.316 2.121 0.879s0.879 1.326 0.879 2.121v2c0 0.796-0.316 1.559-0.879 2.121s-1.326 0.879-2.121 0.879h-2c-0.796 0-1.559-0.316-2.121-0.879s-0.879-1.326-0.879-2.121v-2zM27 20c-0.265 0-0.52 0.105-0.707 0.293s-0.293 0.442-0.293 0.707v2c0 0.265 0.105 0.52 0.293 0.707s0.442 0.293 0.707 0.293h2c0.265 0 0.52-0.105 0.707-0.293s0.293-0.442 0.293-0.707v-2c0-0.265-0.105-0.52-0.293-0.707s-0.442-0.293-0.707-0.293h-2zM12 9c0-0.796 0.316-1.559 0.879-2.121s1.326-0.879 2.121-0.879h2c0.796 0 1.559 0.316 2.121 0.879s0.879 1.326 0.879 2.121v2c0 0.796-0.316 1.559-0.879 2.121s-1.326 0.879-2.121 0.879h-2c-0.796 0-1.559-0.316-2.121-0.879s-0.879-1.326-0.879-2.121v-2zM15 8c-0.265 0-0.52 0.105-0.707 0.293s-0.293 0.442-0.293 0.707v2c0 0.265 0.105 0.52 0.293 0.707s0.442 0.293 0.707 0.293h2c0.265 0 0.52-0.105 0.707-0.293s0.293-0.442 0.293-0.707v-2c0-0.265-0.105-0.52-0.293-0.707s-0.442-0.293-0.707-0.293h-2z"></path>
<path fill="#eab308" style="fill: var(--color1, #eab308)" d="M12 9h-8.268c-0.22-0.381-0.56-0.679-0.967-0.848s-0.858-0.198-1.283-0.084c-0.425 0.114-0.801 0.365-1.069 0.714s-0.413 0.777-0.413 1.218c0 0.44 0.145 0.868 0.413 1.218s0.644 0.6 1.069 0.714c0.425 0.114 0.876 0.084 1.283-0.084s0.747-0.466 0.967-0.848h5.336c-2.576 1.626-4.5 4.103-5.44 7h1.372c0.246 0 0.488 0.030 0.716 0.086 0.554-1.45 1.408-2.767 2.505-3.865s2.415-1.951 3.865-2.505c-0.057-0.234-0.086-0.475-0.086-0.716v-2zM19.914 11.716c0.057-0.234 0.086-0.475 0.086-0.716v-2h8.268c0.22-0.381 0.56-0.679 0.967-0.848s0.858-0.198 1.283-0.084c0.425 0.114 0.801 0.365 1.069 0.714s0.413 0.777 0.413 1.218c0 0.44-0.145 0.868-0.413 1.218s-0.644 0.6-1.069 0.714c-0.425 0.114-0.876 0.084-1.283-0.084s-0.747-0.466-0.967-0.848h-5.336c2.576 1.626 4.5 4.103 5.44 7h-1.372c-0.246 0-0.486 0.030-0.716 0.086-0.554-1.45-1.408-2.767-2.505-3.865s-2.415-1.951-3.865-2.505z"></path>
</symbol>
<symbol id="Frame-1" viewBox="0 0 32 32">
<path fill="#eab308" style="fill: var(--color1, #eab308)" d="M9 12.133c0.265 0 0.52-0.1 0.707-0.277s0.293-0.417 0.293-0.668-0.105-0.491-0.293-0.668c-0.188-0.177-0.442-0.277-0.707-0.277s-0.52 0.1-0.707 0.277c-0.188 0.177-0.293 0.417-0.293 0.668s0.105 0.491 0.293 0.668c0.188 0.177 0.442 0.277 0.707 0.277zM12 12.133c0.265 0 0.52-0.1 0.707-0.277s0.293-0.417 0.293-0.668-0.105-0.491-0.293-0.668c-0.188-0.177-0.442-0.277-0.707-0.277s-0.52 0.1-0.707 0.277c-0.188 0.177-0.293 0.417-0.293 0.668s0.105 0.491 0.293 0.668c0.188 0.177 0.442 0.277 0.707 0.277zM16 11.188c0 0.25-0.105 0.491-0.293 0.668s-0.442 0.277-0.707 0.277-0.52-0.1-0.707-0.277c-0.188-0.177-0.293-0.417-0.293-0.668s0.105-0.491 0.293-0.668c0.188-0.177 0.442-0.277 0.707-0.277s0.52 0.1 0.707 0.277c0.188 0.177 0.293 0.417 0.293 0.668z"></path>
<path fill="#eab308" style="fill: var(--color1, #eab308)" d="M24 2.689c1.061 0 2.078 0.398 2.828 1.106s1.172 1.669 1.172 2.671c1.061 0 2.078 0.398 2.828 1.106s1.172 1.669 1.172 2.671v15.11c0 1.002-0.421 1.963-1.172 2.671s-1.768 1.106-2.828 1.106h-20c-1.061 0-2.078-0.398-2.828-1.106s-1.172-1.669-1.172-2.671c-1.061 0-2.078-0.398-2.828-1.106s-1.172-1.669-1.172-2.671v-15.11c0-1.002 0.421-1.963 1.172-2.671s1.768-1.106 2.828-1.106h20zM4 23.465v-13.222c0-1.002 0.421-1.963 1.172-2.671s1.768-1.106 2.828-1.106h18c0-0.501-0.211-0.981-0.586-1.336s-0.884-0.553-1.414-0.553h-20c-0.53 0-1.039 0.199-1.414 0.553s-0.586 0.835-0.586 1.336v15.11c0 0.501 0.211 0.981 0.586 1.336s0.884 0.553 1.414 0.553zM6 15.91v9.444c0 0.501 0.211 0.981 0.586 1.336s0.884 0.553 1.414 0.553h20c0.53 0 1.039-0.199 1.414-0.553s0.586-0.835 0.586-1.336v-9.444h-24zM30 14.022v-3.778c0-0.501-0.211-0.981-0.586-1.336s-0.884-0.553-1.414-0.553h-20c-0.53 0-1.039 0.199-1.414 0.553s-0.586 0.835-0.586 1.336v3.778h24z"></path>
</symbol>
<symbol id="Frame" viewBox="0 0 32 32">
<path fill="#eab308" style="fill: var(--color1, #eab308)" d="M26 5c0-0.796 0.316-1.559 0.879-2.121s1.326-0.879 2.121-0.879 1.559 0.316 2.121 0.879c0.563 0.563 0.879 1.326 0.879 2.121v22c0 0.796-0.316 1.559-0.879 2.121s-1.326 0.879-2.121 0.879-1.559-0.316-2.121-0.879c-0.563-0.563-0.879-1.326-0.879-2.121v-0.428c-4.324-2.482-8.98-3.686-13.824-4.166l0.81 5.424c0.054 0.289 0.044 0.586-0.029 0.871s-0.209 0.55-0.397 0.776c-0.188 0.226-0.423 0.408-0.689 0.533s-0.557 0.19-0.851 0.19h-1.096c-0.389 0-0.769-0.113-1.094-0.326s-0.582-0.516-0.738-0.872l-3.7-6.98c-0.135-0.002-0.269-0.004-0.404-0.006-1.059-0.010-2.072-0.438-2.818-1.19s-1.167-1.767-1.17-2.826v-4c0.004-1.059 0.423-2.075 1.168-2.828s1.756-1.183 2.816-1.198c1.656-0.022 3.312-0.072 4.966-0.15 6.086-0.308 12.296-1.698 17.050-4.398v-0.426zM28 5v22c0 0.265 0.105 0.52 0.293 0.707s0.442 0.293 0.707 0.293c0.265 0 0.52-0.105 0.707-0.293s0.293-0.442 0.293-0.707v-22c0-0.265-0.105-0.52-0.293-0.707s-0.442-0.293-0.707-0.293c-0.265 0-0.52 0.105-0.707 0.293s-0.293 0.442-0.293 0.707zM26 7.7c-4.688 2.41-10.418 3.684-16 4.066v8.466c0.36 0.020 0.718 0.044 1.074 0.072 5.136 0.378 10.186 1.488 14.926 3.986v-16.59zM8 20.13v-8.26c-1.328 0.049-2.656 0.083-3.984 0.104-0.534 0.006-1.045 0.222-1.422 0.601s-0.59 0.891-0.594 1.425v4c0 1.1 0.896 2.004 2.012 2.018 1.33 0.015 2.659 0.053 3.988 0.112zM6.686 22.080l3.218 6.074 0.020 0.048h1.096l-0.004-0.028-0.886-5.932c-1.147-0.069-2.295-0.124-3.444-0.164v0.002z"></path>
</symbol>
<symbol id="menu2" viewBox="0 0 44 32">
<path d="M0 6h28v6h-28v-6zM0 14h28v6h-28v-6zM0 22h28v6h-28v-6z"></path>
<path d="M31 18l6 6 6-6z"></path>
<path d="M43 16l-6-6-6 6z"></path>
</symbol>
<symbol id="cross" viewBox="0 0 32 32">
<path d="M31.708 25.708c-0-0-0-0-0-0l-9.708-9.708 9.708-9.708c0-0 0-0 0-0 0.105-0.105 0.18-0.227 0.229-0.357 0.133-0.356 0.057-0.771-0.229-1.057l-4.586-4.586c-0.286-0.286-0.702-0.361-1.057-0.229-0.13 0.048-0.252 0.124-0.357 0.228 0 0-0 0-0 0l-9.708 9.708-9.708-9.708c-0-0-0-0-0-0-0.105-0.104-0.227-0.18-0.357-0.228-0.356-0.133-0.771-0.057-1.057 0.229l-4.586 4.586c-0.286 0.286-0.361 0.702-0.229 1.057 0.049 0.13 0.124 0.252 0.229 0.357 0 0 0 0 0 0l9.708 9.708-9.708 9.708c-0 0-0 0-0 0-0.104 0.105-0.18 0.227-0.229 0.357-0.133 0.355-0.057 0.771 0.229 1.057l4.586 4.586c0.286 0.286 0.702 0.361 1.057 0.229 0.13-0.049 0.252-0.124 0.357-0.229 0-0 0-0 0-0l9.708-9.708 9.708 9.708c0 0 0 0 0 0 0.105 0.105 0.227 0.18 0.357 0.229 0.356 0.133 0.771 0.057 1.057-0.229l4.586-4.586c0.286-0.286 0.362-0.702 0.229-1.057-0.049-0.13-0.124-0.252-0.229-0.357z"></path>
</symbol>
</defs>
</svg>
